<svg width="24" height="24" viewBox="0 0 24 24" fill="none" xmlns="http://www.w3.org/2000/svg">
<path fill-rule="evenodd" clip-rule="evenodd" d="M12.0003 5.97884V18.0195C12.0004 18.4692 11.7964 18.8947 11.4456 19.1761C11.0948 19.4575 10.6352 19.5644 10.1962 19.4667L6.49129 18.643C5.81325 18.4925 5.33081 17.8912 5.33081 17.1966V6.80252C5.33081 6.10769 5.81372 5.50623 6.49213 5.35608L10.197 4.5324C10.6358 4.43485 11.0951 4.54173 11.4457 4.82296C11.7963 5.1042 12.0003 5.52937 12.0003 5.97884Z" stroke="white" stroke-width="2" stroke-linecap="round" stroke-linejoin="round"/>
<path d="M9.49924 12.85V11.1826" stroke="white" stroke-width="2" stroke-linecap="round" stroke-linejoin="round"/>
<path d="M18.6697 8.66515V6.96277C18.6699 6.52052 18.4942 6.09635 18.1815 5.78363C17.8688 5.47092 17.4446 5.29529 17.0024 5.29541H14.5013" stroke="white" stroke-width="2" stroke-linecap="round" stroke-linejoin="round"/>
<path d="M18.6697 15.3345V17.0018C18.6699 17.4441 18.4942 17.8683 18.1815 18.181C17.8688 18.4937 17.4446 18.6693 17.0024 18.6692H14.5013" stroke="white" stroke-width="2" stroke-linecap="round" stroke-linejoin="round"/>
<path d="M14.5013 11.9998H18.6697" stroke="white" stroke-width="2" stroke-linecap="round" stroke-linejoin="round"/>
<path d="M17.0023 13.6672L18.6697 11.9999L17.0023 10.3325" stroke="white" stroke-width="2" stroke-linecap="round" stroke-linejoin="round"/>
</svg>
